<?xml version="1.0" standalone="no"?>
<!DOCTYPE svg PUBLIC "-//W3C//DTD SVG 1.1//EN" "http://www.w3.org/Graphics/SVG/1.1/DTD/svg11.dtd" >
<svg xmlns="http://www.w3.org/2000/svg">
<metadata></metadata>
<defs>
<font id="entypo_socialregular" horiz-adv-x="1187" >
<font-face units-per-em="2048" ascent="1536" descent="-512" />
<missing-glyph horiz-adv-x="500" />
<glyph unicode="&#x2000;" horiz-adv-x="512" />
<glyph unicode="&#x2001;" horiz-adv-x="1025" />
<glyph unicode="&#x2002;" horiz-adv-x="512" />
<glyph unicode="&#x2003;" horiz-adv-x="1025" />
<glyph unicode="&#x2004;" horiz-adv-x="341" />
<glyph unicode="&#x2005;" horiz-adv-x="256" />
<glyph unicode="&#x2006;" horiz-adv-x="170" />
<glyph unicode="&#x2007;" horiz-adv-x="170" />
<glyph unicode="&#x2008;" horiz-adv-x="128" />
<glyph unicode="&#x2009;" horiz-adv-x="205" />
<glyph unicode="&#x200a;" horiz-adv-x="56" />
<glyph unicode="&#x202f;" horiz-adv-x="205" />
<glyph unicode="&#x205f;" horiz-adv-x="256" />
<glyph unicode="&#xe000;" horiz-adv-x="1024" d="M0 0z" />
<glyph unicode="&#xf020;" horiz-adv-x="1024" />
<glyph unicode="&#xf300;" horiz-adv-x="1146" d="M102 487q0 117 76 199q-2 15 -3 44t8.5 82t27.5 99q11 -1 30 -5.5t80 -31t123 -69.5q47 12 129 12q85 0 129 -12q63 43 121.5 69.5t85.5 31.5l27 5q19 -46 28.5 -99t8 -82t-3.5 -44q75 -81 75 -199q0 -76 -18 -136.5t-43.5 -98.5t-65 -66t-72 -41t-74.5 -20.5t-62.5 -8.5 t-46.5 -1q-5 0 -36.5 -1t-52.5 -1t-52 1t-36 1q-26 0 -46.5 1t-63 8.5t-75 20.5t-71.5 41t-65 66t-44 98.5t-18 136.5zM229 369q0 -54 18 -93t46 -61t75 -34.5t92.5 -16.5t110.5 -4h4q65 0 111 4t93 16.5t76 34.5t47 61t18 93q0 73 -56 123q-21 20 -55.5 28t-64.5 6.5 t-83 -5t-86 -3.5h-2h-2q-33 0 -85.5 3.5t-82 5t-64 -6.5t-56.5 -28q-54 -48 -54 -123zM344 354q0 38 20 65t48 27t46.5 -27t18.5 -65t-18.5 -65t-46.5 -27t-48 27t-20 65zM670 354q0 38 19.5 65t47.5 27t47 -27t19 -65t-19 -65t-47 -27t-47.5 27t-19.5 65z" />
<glyph unicode="&#xf301;" d="M102 512q0 100 39 191.5t105.5 157t157 104.5t190.5 39q134 0 247 -66t178.5 -179t65.5 -247q0 -100 -39 -190.5t-104.5 -157t-156.5 -105.5t-191 -39q-202 0 -347 145t-145 347zM356 500q0 -53 17 -91t39 -56t53 -28.5t48 -12t36 -1.5h45h45q19 0 35.5 1.5t48 12 t53 28.5t38.5 56t17 91q0 59 -38 100q5 3 0.5 42t-17.5 73q-45 -6 -117 -53q-21 6 -65 6q-42 0 -66 -6q-31 21 -60 34t-42 16l-14 3q-13 -34 -17.5 -73t0.5 -42q-39 -42 -39 -100zM420 440q0 36 26 62q15 13 35 16.5t60 0.5t53 -3q16 0 43 2t42 2t32.5 -4t29.5 -14 q27 -27 27 -62q0 -34 -12.5 -56t-38.5 -32.5t-53.5 -14t-69.5 -3.5t-69.5 3.5t-53.5 14t-38.5 32.5t-12.5 56zM479 432q0 -19 10 -33t23 -14t23 14t10 33q0 20 -9.5 33.5t-23.5 13.5t-23.5 -13.5t-9.5 -33.5zM643 432q0 -19 10 -33t23 -14q14 0 24.5 14t10.5 33 q0 20 -10.5 33.5t-24.5 13.5t-23.5 -13.5t-9.5 -33.5z" />
<glyph unicode="&#xf303;" horiz-adv-x="1126" d="M102 512q0 86 58.5 145.5t142.5 59.5t142.5 -59.5t58.5 -145.5q0 -85 -59 -145t-142 -60t-142 60t-59 145zM623 512q0 86 58.5 145.5t141.5 59.5q84 0 142.5 -59.5t58.5 -145.5q0 -85 -59 -145t-142 -60t-141.5 60t-58.5 145z" />
<glyph unicode="&#xf304;" d="M102 512q0 100 39 191.5t105.5 157t157 104.5t190.5 39q134 0 247 -66t178.5 -179t65.5 -247q0 -100 -39 -190.5t-104.5 -157t-156.5 -105.5t-191 -39q-202 0 -347 145t-145 347zM360 512q0 -41 31 -71.5t72 -30.5t71.5 30.5t30.5 71.5q0 43 -30.5 73.5t-71.5 30.5 t-72 -31t-31 -73zM625 512q0 -41 29.5 -71.5t70.5 -30.5q42 0 72 30t30 72q0 43 -29.5 73.5t-72.5 30.5q-41 0 -70.5 -30.5t-29.5 -73.5z" />
<glyph unicode="&#xf306;" horiz-adv-x="1128" d="M102 700q6 8 17.5 21t45 47t65.5 61t74 52.5t75 31.5q36 8 61.5 -9.5t40.5 -57.5t23 -77.5t16.5 -94t14.5 -82.5q38 -146 53 -172q11 -17 22 -17q41 0 129 170q26 50 19 92.5t-40 53.5t-87 -17q19 112 116 176q84 56 167 42q82 -15 104 -94q12 -43 2 -101 q-14 -84 -55.5 -170.5t-91.5 -153t-107 -126.5t-99 -96t-73 -56q-42 -29 -82.5 -17t-68.5 39.5t-44 61.5q-16 32 -79 244.5t-76 228.5q-16 13 -39.5 6t-44.5 -22l-21 -15z" />
<glyph unicode="&#xf307;" d="M102 512q0 100 39 191.5t105.5 157t157 104.5t190.5 39q134 0 247 -66t178.5 -179t65.5 -247q0 -100 -39 -190.5t-104.5 -157t-156.5 -105.5t-191 -39q-202 0 -347 145t-145 347zM356 594l19 -25q2 1 4.5 3t10 7t13.5 7t14 3.5t11 -3.5q6 -8 38.5 -116t39.5 -124 q8 -17 22 -31t34.5 -20.5t41.5 8.5q55 37 126 122.5t89 182.5q13 74 -38 94q-45 17 -97 -16q-50 -33 -61 -90q39 24 57.5 -1.5t-2.5 -64.5q-46 -86 -66 -86q-15 0 -37 97q-4 13 -8.5 40.5t-8.5 46.5t-11.5 39t-20 29t-30.5 6q-26 -5 -61 -32t-57 -52z" />
<glyph unicode="&#xf309;" horiz-adv-x="1146" d="M102 217q14 -2 48 -2q133 0 239 82q-63 1 -112 38.5t-68 96.5q10 -4 35 -4q27 0 51 6q-66 14 -110 67.5t-44 123.5v2q39 -22 86 -25q-39 27 -62.5 69.5t-23.5 92.5q0 47 27 96q74 -90 177 -143.5t222 -57.5q-6 18 -6 43q0 80 57 136.5t138 56.5q83 0 139 -59 q59 11 123 45q-21 -66 -84 -107q53 8 110 31q-37 -54 -96 -100v-25q0 -98 -37 -194t-104 -176t-174 -129.5t-234 -49.5q-163 0 -297 86z" />
<glyph unicode="&#xf30a;" d="M102 512q0 100 39 191.5t105.5 157t157 104.5t190.5 39q134 0 247 -66t178.5 -179t65.5 -247q0 -100 -39 -190.5t-104.5 -157t-156.5 -105.5t-191 -39q-202 0 -347 145t-145 347zM371 356q68 -43 147 -43q85 0 150 43t96 105t31 129v12q30 23 47 49q-31 -11 -56 -14 q31 19 43 53q-30 -17 -61 -22q-28 28 -72 28q-40 0 -68 -28t-28 -68q0 -3 1 -10.5t1 -11.5q-59 3 -111 30t-88 72q-14 -24 -14 -49q0 -53 45 -80q-27 0 -45 12v-2q0 -35 22 -61.5t56 -32.5q-16 -4 -25 -4q-12 0 -18 2q9 -30 33.5 -49t56.5 -19q-50 -41 -121 -41h-22z" />
<glyph unicode="&#xf30c;" horiz-adv-x="716" d="M102 504v151h156v88q0 96 60.5 163t150.5 67h145v-160h-145q-14 0 -25.5 -15.5t-11.5 -37.5v-105h182v-151h-182v-453h-174v453h-156z" />
<glyph unicode="&#xf30d;" d="M102 512q0 134 66 247t179 179t247 66t247 -66t178.5 -179t65.5 -247q0 -100 -39 -190.5t-104.5 -157t-156.5 -105.5t-191 -39t-191.5 39t-157 105.5t-104.5 157t-39 190.5zM453 508h77v-227h88v227h93v76h-93v53q0 11 6.5 20t12.5 9h74v79h-74q-46 0 -76.5 -33 t-30.5 -83v-45h-77v-76z" />
<glyph unicode="&#xf30e;" horiz-adv-x="1085" d="M102 172v662q0 44 32.5 76t78.5 32h659q46 0 78.5 -32t32.5 -76v-662q0 -45 -33 -78t-78 -33h-165v318h116v137h-116v72q0 30 28 30h88v156h-98q-75 0 -126.5 -55t-51.5 -135v-68h-107v-137h107v-318h-334q-45 0 -78 33t-33 78z" />
<glyph unicode="&#xf30f;" horiz-adv-x="1122" d="M102 252q0 50 23.5 87t55.5 56t75 30.5t71.5 14t55.5 2.5h2q-16 23 -24 48.5t-7 39.5v15h-14q-67 0 -113 30q-75 46 -75 164q0 44 13 80t33 58.5t46.5 39.5t50 25.5t47 13.5t33.5 6t14 1h236v-5q0 -6 -2.5 -10.5t-8 -7.5t-10.5 -5.5t-14 -4.5t-14.5 -3t-15.5 -2.5 t-15 -2.5q-29 0 -39 -7q41 -22 55 -57.5t14 -97.5q0 -104 -69 -162l-9.5 -9.5l-9.5 -9.5t-8 -8.5t-7 -9t-3.5 -8.5t-1.5 -10q0 -9 8.5 -21.5t16 -19.5t26.5 -25q24 -21 37 -33.5t32.5 -37t28.5 -52t9 -59.5q0 -143 -119 -199q-69 -35 -154 -35q-2 0 -4.5 1t-3.5 1 q-2 -2 -4 -2q-14 0 -31.5 2t-47 7.5t-55.5 19t-50.5 33t-39 53t-14.5 76.5zM205 252q4 -53 54 -82.5t122 -24.5q70 5 111.5 41t37.5 90q-3 53 -43.5 86t-105.5 33h-16q-66 -3 -117 -47q-46 -43 -43 -96zM262 725q13 -52 48 -86.5t73 -34.5q12 0 18 2q44 12 65 67t3 115 q-18 62 -47.5 86.5t-77.5 24.5q-12 0 -20 -2q-42 -12 -60 -63q-16 -52 -2 -109zM616 514v96h154v154h96v-154h154v-96h-154v-154h-96v154h-154z" />
<glyph unicode="&#xf310;" d="M102 512q0 100 39 191.5t105.5 157t157 104.5t190.5 39q134 0 247 -66t178.5 -179t65.5 -247q0 -100 -39 -190.5t-104.5 -157t-156.5 -105.5t-191 -39q-202 0 -347 145t-145 347zM362 381q0 -31 15 -52.5t38.5 -29.5t38.5 -11t27 -3h4h4q41 0 76 16q62 30 62 100 q0 48 -54 95q-26 22 -26 32q0 14 20 27q35 35 35 82q0 32 -7.5 50.5t-29.5 29.5q2 1 10 2t11 2q41 5 41 16v4h-119q-4 0 -13.5 -1t-29.5 -8t-36.5 -18t-29 -33.5t-12.5 -53.5q0 -59 39 -82q24 -17 57 -17h6q-3 -24 17 -51h-2q-18 0 -37 -2.5t-45.5 -11t-43 -30t-16.5 -52.5z M414 381q0 27 22 49t60 25h8q32 0 53 -17.5t23 -44.5t-19.5 -45.5t-56.5 -19.5q-36 -3 -62.5 12t-27.5 41zM442 621q-6 31 2 55q9 25 31 31q2 2 10 2q24 0 38.5 -12.5t23.5 -45.5q9 -31 -1 -58.5t-32 -33.5h-10q-20 0 -37 17.5t-25 44.5zM621 514h77v-78h50v78h77v49h-77v78 h-50v-78h-77v-49z" />
<glyph unicode="&#xf312;" horiz-adv-x="1003" d="M104 668q4 141 108 239.5t239 114.5q167 19 295.5 -58t148.5 -225q17 -115 -17.5 -222.5t-116.5 -175t-192 -58.5q-22 1 -42.5 8.5t-30.5 13t-33 21.5t-31 22q-27 -133 -60 -216t-98 -132q-7 75 -7.5 123t11.5 113t22.5 106t27 102t24.5 101q-17 29 -20 68.5t6.5 75.5 t29 66t49 40.5t66.5 -2.5q35 -14 44 -48t-3 -75t-25 -87.5t-22 -86t6.5 -70t59.5 -39.5q71 -15 125 39t75 134t10.5 166.5t-55.5 131.5q-43 44 -100 61.5t-112.5 10.5t-108 -35t-90.5 -70.5t-57 -101t-9 -121.5q3 -19 15 -40.5t21 -35.5t8.5 -39t-17.5 -55q-151 35 -144 236 z" />
<glyph unicode="&#xf313;" d="M102 512q0 134 66 247t179 179t247 66t247 -66t178.5 -179t65.5 -247q0 -100 -39 -190.5t-104.5 -157t-156.5 -105.5t-191 -39t-191.5 39t-157 105.5t-104.5 157t-39 190.5zM393 592q-3 -103 72 -119q9 15 9.5 27t-4 19.5t-10.5 18.5t-7 21q-7 47 17 87.5t62 60.5 t84 16.5t78 -35.5q22 -23 27 -66.5t-6 -84t-38.5 -68t-62.5 -20.5q-27 6 -32.5 26t2.5 46.5t17 53t6.5 48.5t-23.5 30q-29 13 -51 -9.5t-24.5 -55.5t9.5 -60q-4 -24 -15 -64t-16.5 -64.5t-10.5 -69t3 -76.5q33 25 50 67.5t30 108.5q6 -4 16.5 -11.5t16 -10.5t15 -6.5 t20.5 -4.5q84 -7 131.5 66t34.5 166q-10 73 -75.5 111.5t-150.5 29.5q-68 -8 -119.5 -57.5t-54.5 -120.5z" />
<glyph unicode="&#xf315;" horiz-adv-x="778" d="M102 598v133q57 18 95 51q40 34 63 82q26 57 31 119h133v-238h221v-147h-221v-242q0 -85 8 -104q9 -25 33 -37q29 -20 70 -20q70 0 141 47v-148q-54 -28 -109 -41q-49 -12 -104 -12q-60 0 -113 16q-51 19 -84 47q-36 31 -47 66q-14 32 -14 98v330h-103z" />
<glyph unicode="&#xf316;" d="M102 512q0 100 39 191.5t105.5 157t157 104.5t190.5 39q134 0 247 -66t178.5 -179t65.5 -247q0 -100 -39 -190.5t-104.5 -157t-156.5 -105.5t-191 -39q-202 0 -347 145t-145 347zM436 555h51v-166q0 -27 9 -49q6 -18 24 -33q14 -14 41 -24q36 -9 57 -9q26 0 54 7 q30 7 55 20v76q-39 -25 -72 -25q-17 0 -37 10q-11 7 -14 19q-6 12 -6 53v121h113v76h-113v121h-66q-7 -44 -16 -62q-11 -22 -33 -41q-21 -17 -47 -26v-68z" />
<glyph unicode="&#xf318;" horiz-adv-x="1126" d="M102 868q0 42 29.5 70.5t75.5 28.5t74 -28t30 -71q0 -41 -29 -69.5t-77 -28.5q-45 0 -74 28.5t-29 69.5zM109 59v633h196v-633h-196zM418 692h170l10 -88h4q24 39 74 71t121 32q103 0 165 -69t62 -204v-375h-197v351q0 137 -100 137q-37 0 -62.5 -21.5t-37.5 -52.5 q-6 -12 -6 -49v-365h-199v430q0 89 -4 203z" />
<glyph unicode="&#xf319;" d="M102 512q0 100 39 191.5t105.5 157t157 104.5t190.5 39q134 0 247 -66t178.5 -179t65.5 -247q0 -100 -39 -190.5t-104.5 -157t-156.5 -105.5t-191 -39q-202 0 -347 145t-145 347zM371 719q0 -22 14.5 -35.5t38.5 -13.5t38.5 13.5t14.5 35.5t-14.5 35.5t-38.5 13.5 q-23 0 -38 -13.5t-15 -35.5zM375 309h98v320h-98v-320zM530 629q2 -29 2 -103v-217h101v185q0 18 4 24q13 39 51 39q49 0 49 -70v-178h101v189q0 68 -31.5 103.5t-83.5 35.5q-36 0 -61.5 -16t-36.5 -35h-2l-7 43h-86z" />
<glyph unicode="&#xf31b;" horiz-adv-x="1146" d="M102 512q0 195 138 333t333 138t333 -138t138 -333t-138 -333t-333 -138t-333 138t-138 333zM172 512q0 -151 102 -268q5 8 13.5 21.5t39.5 51t66 70t91.5 68t117.5 55.5q8 4 14 4q-9 26 -32 70q-191 -58 -412 -58v-14zM180 596q186 0 371 49q-32 56 -68 112t-57 86 t-25 34q-84 -40 -142.5 -114t-78.5 -167zM317 203l9 -6q-1 1 -4.5 3t-4.5 3zM326 197q114 -86 247 -86q80 0 158 32q-24 141 -86 306l-2 -3q-216 -75 -317 -249zM477 903zM479 903q85 -113 150 -233q142 53 210 144l1 1q-118 100 -267 100q-47 0 -94 -12zM659 608 q15 -27 27 -57q2 -3 5 -10.5t5 -10.5q68 8 132 4t103 -10t44 -8q0 141 -90 252l-9 -10q-8 -10 -26 -27.5t-42.5 -37.5t-64 -43.5t-84.5 -41.5zM721 467q56 -158 78 -287q68 44 113.5 115t58.5 154q-8 4 -39.5 11t-90 12.5t-120.5 -5.5z" />
<glyph unicode="&#xf31c;" d="M102 512q0 100 39 191.5t105.5 157t157 104.5t190.5 39q134 0 247 -66t178.5 -179t65.5 -247q0 -100 -39 -190.5t-104.5 -157t-156.5 -105.5t-191 -39q-202 0 -347 145t-145 347zM354 512q0 -99 70.5 -169.5t169.5 -70.5q100 0 171 71t71 169q0 100 -71 171t-171 71 t-170 -71t-70 -171zM393 512v4q109 0 205 29q4 -6 8.5 -17t5.5 -12l-4 -2q-44 -15 -84 -45.5t-57 -52t-25 -35.5q-49 58 -49 131zM399 557q9 44 38 80t69 57q34 -40 74 -112q-93 -25 -181 -25zM473 354q6 13 18.5 29.5t50.5 46t87 47.5q35 -93 41 -149q-39 -17 -76 -17 q-69 0 -121 43zM551 709q14 4 43 4q75 0 131 -47q-33 -44 -102 -70q-29 52 -72 113zM641 561q74 29 111 76q43 -53 43 -119q-48 8 -93 8q-31 0 -45 -2q-1 1 -2 4t-2 4q-2 5 -6 14.5t-6 14.5zM672 487q12 2 39 2q32 0 82 -10q-16 -84 -84 -131q-6 58 -37 139z" />
<glyph unicode="&#xf31e;" horiz-adv-x="1228" d="M102 352v135h177v-135q0 -22 15.5 -37.5t37.5 -15.5t37.5 15.5t15.5 37.5v322q0 94 67 160.5t162 66.5t162.5 -66.5t67.5 -160.5v-62l-105 -34l-71 34v62q0 22 -15.5 37.5t-38.5 15.5q-22 0 -37.5 -15.5t-15.5 -37.5v-322q0 -94 -67 -161.5t-162 -67.5t-162.5 67.5 t-67.5 161.5zM668 352v137l71 -32l105 32v-137q0 -22 15.5 -37.5t37.5 -15.5q23 0 39 15.5t16 37.5v135h174v-135q0 -94 -67 -161.5t-162 -67.5q-94 0 -161.5 67.5t-67.5 161.5z" />
<glyph unicode="&#xf31f;" d="M102 512q0 134 66 247t179 179t247 66q133 0 246 -66t179 -179t66 -247q0 -133 -66 -246.5t-179 -179.5t-246 -66q-100 0 -191.5 39t-157 105.5t-104.5 157t-39 190.5zM334 436q0 -47 34.5 -80.5t82.5 -33.5q47 0 80.5 33.5t33.5 80.5v164q0 11 8.5 19t20.5 8 q10 0 18.5 -8.5t8.5 -18.5v-31l34 -18l54 18v31q0 47 -34 81t-81 34t-82 -34t-35 -81v-164q0 -10 -7.5 -18t-18.5 -8t-19 8t-8 18v70h-90v-70zM621 436q0 -48 33.5 -81t82.5 -33q47 0 81 33.5t34 80.5v70h-88v-70q0 -10 -8 -18t-19 -8q-12 0 -20 7.5t-8 18.5v70l-54 -17 l-34 17v-70z" />
<glyph unicode="&#xf321;" horiz-adv-x="1228" d="M102 504q0 133 82 214t193 81q115 0 171 -45.5t93 -163.5l37 -119q50 -149 207 -149q123 0 123 61q0 55 -80 74l-80 18q-72 18 -104.5 56.5t-32.5 99.5q0 89 60 128.5t149 39.5q188 0 202 -150l-116 -14q-8 72 -93 72q-39 0 -61.5 -17t-22.5 -47q0 -27 15.5 -43t52.5 -25 l76 -16q77 -19 115 -59.5t38 -110.5q0 -164 -243 -164q-73 0 -128 15.5t-90 45.5t-56.5 64.5t-37.5 81.5l-36 119q-14 40 -23 60.5t-26 44.5t-42.5 34t-62.5 10q-29 0 -56.5 -10t-53 -31t-41 -60t-15.5 -91q0 -83 47.5 -133.5t112.5 -50.5q14 0 27 2t25 6.5t20.5 8t19 10.5 t15 10.5t14 11t10.5 8.5l35 -102q-69 -54 -172 -54q-109 0 -188 75t-79 204z" />
<glyph unicode="&#xf322;" d="M102 512q0 134 66 247t179 179t247 66q133 0 246 -66t179 -179t66 -247q0 -133 -66 -246.5t-179 -179.5t-246 -66q-100 0 -191.5 39t-157 105.5t-104.5 157t-39 190.5zM334 508q0 -64 39.5 -101.5t95.5 -37.5q57 0 88 26l-18 51q-28 -28 -68 -28q-32 0 -56 25.5t-24 66.5 q0 51 25.5 74.5t58.5 23.5q35 0 50 -18.5t28 -57.5l18 -59q15 -49 51 -76.5t107 -27.5q123 0 123 82q0 68 -78 86l-39 8q-33 8 -33 35q0 30 41 30q45 0 48 -35l59 7q-6 75 -102 75q-45 0 -75 -20t-30 -66q0 -60 68 -77l41 -9q41 -11 41 -36q0 -33 -64 -33q-77 0 -102 76 l-21 59q-19 60 -46.5 83t-86.5 23q-56 0 -97.5 -41t-41.5 -108z" />
<glyph unicode="&#xf324;" horiz-adv-x="1146" d="M102 512q0 166 115.5 282.5t278.5 116.5q53 0 92 -10v-227q-79 27 -158 -10q-72 -35 -104 -104t-4 -132q28 -61 97.5 -80.5t141.5 14.5q54 26 89.5 82t35.5 125v293q19 -9 25 -14q179 -111 317 -117q26 -1 11 -38q-19 -50 -78 -92q-35 -25 -74 -36q4 -32 4 -53 q0 -165 -115.5 -282t-279.5 -117q-163 0 -278.5 117.5t-115.5 281.5z" />
<glyph unicode="&#xf325;" d="M102 512q0 134 66 247t179 179t247 66q133 0 246 -66t179 -179t66 -247q0 -133 -66 -246.5t-179 -179.5t-246 -66q-100 0 -191.5 39t-157 105.5t-104.5 157t-39 190.5zM371 512q0 -83 58 -142t140 -59q83 0 142 59t59 142q0 5 -1 14t-1 13q46 14 71 54q15 27 -1 30 q-75 5 -160 59q-2 1 -6 4t-6 4v-149q0 -34 -18.5 -63t-45.5 -40q-35 -19 -71.5 -9t-49.5 42q-14 31 2.5 65.5t53.5 51.5q37 19 79 6v115q-21 6 -47 6q-82 0 -140 -59t-58 -144z" />
<glyph unicode="&#xf327;" horiz-adv-x="1105" d="M102 512q0 188 132 319.5t319 131.5q186 0 318.5 -132t132.5 -319q0 -113 -52.5 -210.5t-142.5 -160.5q-50 84 -131 131t-186 50q-166 6 -279 -107q-111 127 -111 297zM264 692q4 -17 19 -25t32 -3q70 21 161.5 24.5t189 -16t165.5 -60.5q15 -9 32 -4t26 19 q8 15 3.5 31.5t-18.5 25.5q-79 47 -188.5 69t-211.5 18t-183 -28q-15 -4 -23.5 -20t-3.5 -31zM293 543q5 -13 17.5 -20t25.5 -3q105 32 229.5 18t214.5 -69q10 -8 25 -5t22 15t3.5 26.5t-15.5 22.5q-102 63 -240 79.5t-258 -19.5q-13 -4 -20 -17.5t-4 -27.5zM311 408 q3 -12 12.5 -18.5t20.5 -4.5q232 55 391 -41q9 -6 20 -3.5t17 11.5t3.5 21t-11.5 18q-175 108 -432 49q-11 -3 -17.5 -12.5t-3.5 -19.5zM334 119q60 72 153 69q124 -6 177 -112q-69 -15 -111 -15q-116 0 -219 58z" />
<glyph unicode="&#xf328;" d="M102 512q0 134 66 247t179 179t247 66q133 0 246 -66t179 -179t66 -247q0 -123 -57.5 -229.5t-155.5 -173.5q-53 90 -142.5 141.5t-203.5 54.5q-180 6 -303 -117q-121 140 -121 324zM279 709q6 -19 22 -28t35 -3q75 23 174.5 26.5t205.5 -17t181 -64.5q17 -10 36 -5.5 t28 19.5q9 17 4.5 35t-21.5 28q-86 51 -205 75t-231 20t-199 -31q-19 -4 -27.5 -21t-2.5 -34zM311 547q4 -15 18 -22.5t29 -4.5q115 35 250.5 20t233.5 -75q12 -8 28 -4.5t23 16.5q8 13 4.5 28.5t-16.5 22.5q-113 69 -263 87.5t-282 -21.5q-15 -4 -22.5 -18t-2.5 -29z M330 397q3 -12 14 -18.5t23 -3.5q252 59 426 -47q10 -6 22.5 -3t18.5 13t2.5 22.5t-13.5 18.5q-191 117 -471 55q-12 -3 -18.5 -14t-3.5 -23zM354 84q68 77 170 74q134 -3 191 -121q-66 -17 -121 -17q-128 0 -240 64z" />
<glyph unicode="&#xf32a;" horiz-adv-x="1148" d="M104 497q-3 95 28 178.5t94.5 154.5t150.5 112q22 9 45 16q-59 -54 -96.5 -117t-49 -122.5t-13.5 -112.5t9 -101t19 -73t16 -43q14 -32 0.5 -62.5t-47.5 -45.5q-32 -16 -65.5 -7.5t-47.5 41.5q-40 87 -43 182zM264 160q67 -21 131.5 -24t115 7.5t98 32.5t80 45t61.5 50.5 t42.5 43.5t22.5 29q21 30 55 33t64 -19q31 -23 39 -53.5t-12 -62.5q-74 -104 -188 -156t-239.5 -41.5t-230.5 84.5q-24 16 -39 31zM404 442.5q1 19.5 12 42.5q16 39 35 47v7q0 12 8 24v2q0 9 2 13q3 51 33 83.5t81 32.5q50 0 80.5 -32.5t32.5 -83.5q2 -4 2 -13v-2 q8 -8 8 -24v-7q19 -8 35 -47q10 -23 12 -43t-6 -24q-12 -6 -30 22q-6 -29 -31 -47q27 -10 27 -26q0 -14 -19 -23.5t-45 -9.5q-23 0 -40.5 7.5t-20.5 18.5h-9q-11 -26 -63 -26q-26 0 -45 9.5t-19 23.5q0 16 27 26q-25 22 -31 47q-18 -29 -28 -22q-9 5 -8 24.5zM530 901 q3 38 26.5 61.5t59.5 20.5q195 -19 320 -168t108 -344q-4 -34 -8 -49q-15 68 -44.5 126t-64 96t-77 68.5t-79.5 47t-74.5 28t-58.5 15t-36 4.5q-36 3 -55.5 30t-16.5 64z" />
<glyph unicode="&#xf32d;" horiz-adv-x="1085" d="M102 211v352h179q-5 -40 -5 -51q0 -109 78.5 -187.5t188.5 -78.5q109 0 187.5 78.5t78.5 187.5q0 27 -6 51h180v-352q0 -57 -40 -98t-97 -41h-606q-57 0 -97.5 41t-40.5 98zM102 666v149q0 57 40.5 97t97.5 40h606q57 0 97 -40t40 -97v-149h-223q-37 53 -93.5 82.5 t-123.5 29.5t-124.5 -29.5t-92.5 -82.5h-224zM379 512q0 69 48 116.5t116 47.5t116 -47.5t48 -116.5q0 -68 -48.5 -116t-115.5 -48t-115.5 48t-48.5 116zM788 782q0 -9 8 -16.5t17 -7.5h74q10 0 17 7.5t7 16.5v74q0 11 -7 18t-17 7h-74q-9 0 -17 -7.5t-8 -17.5v-74z" />
<glyph unicode="&#xf330;" d="M102 797l293 182l199 -162l-291 -188zM125 485l178 144l291 -183l-180 -149zM285 242v47l121 -80q4 -2 12 -2q10 0 14 4l162 135l164 -135q4 -4 14 -4q8 0 12 2l119 80v-47l-309 -195zM594 446l293 183l178 -144l-289 -188zM594 817l201 162l290 -182l-198 -168z" />
<glyph unicode="&#xf333;" horiz-adv-x="989" d="M102 788l181 177q-4 -142 -4 -154q0 -23 -29 -23h-148zM106 670q0 34 60 30h119q42 0 61 17.5t19 56.5q0 13 -1.5 53.5t-1.5 61.5q0 84 41 84q5 0 21.5 0.5t25.5 0t23.5 -1.5t27.5 -4.5t25 -9.5q18 -8 30 -27t14 -33l3 -15l207 -13q4 0 10 -1t21.5 -5t27.5 -10.5 t21.5 -19t9.5 -29.5q0 -5 5 -75.5t9 -147.5t-0.5 -175.5t-19 -174.5t-52 -128.5t-93.5 -52.5q-159 0 -199 27q-9 8 -15.5 42t-2.5 91q1 26 16 44t36 24.5t41.5 9t34.5 1.5l15 -1l-4 -72q-12 -2 -39 -2q-16 0 -23 -22q-8 -30 18 -43q9 -4 21 -5l89 5q26 3 30.5 50t-2.5 89 q-2 16 -19 26t-35 14t-50 9t-47 8q-28 7 -47 28t-27.5 38.5t-11.5 17.5q-4 0 -5.5 -30t-8.5 -59.5t-25 -29.5q-45 0 -142.5 15.5t-117.5 35.5q-34 34 -63.5 152.5t-29.5 155.5zM622.5 538q-4.5 -24 0.5 -30q8 -5 15.5 -4t26.5 4.5t31 3.5q14 0 31.5 -6t29.5 -9.5t15 -0.5 q6 6 -2 33t-30 53t-50 26t-45.5 -23t-22 -47z" />
<glyph unicode="&#xf336;" horiz-adv-x="1024" d="M102 188v424q0 153 72 231.5t213 78.5h238h215l-320 -318q-6 -6 -10 -6q-9 0 -12 10v4v127q-102 0 -115 -2q-53 -9 -74.5 -45.5t-21.5 -103.5v-215zM186 102l320 320q3 6 8 6q9 0 12 -10v-4v-127q102 0 115 2q53 9 74.5 45.5t21.5 103.5v215l185 185v-424 q0 -153 -72 -232.5t-213 -79.5h-238h-213z" />
<glyph unicode="&#xf339;" horiz-adv-x="1146" d="M102 737q0 110 76.5 188.5t183.5 78.5q78 0 140 -41q33 8 78 8q186 0 317 -135.5t131 -327.5q0 -46 -10 -98q26 -60 26 -121q0 -110 -76.5 -189.5t-183.5 -79.5q-61 0 -122 33q-54 -8 -82 -8q-187 0 -319 135.5t-132 327.5q0 44 10 92q-37 61 -37 137zM313 377 q0 -37 29 -84q26 -41 74 -68q65 -35 162 -35q77 0 141 25q62 29 90 72q31 48 31 102q0 43 -17 82q-16 30 -51 55q-41 25 -78 37q-97 27 -98 27q-14 3 -36 8t-28 6q-24 8 -34 14q-16 8 -27 23q-10 10 -10 27q0 24 28 43q26 20 78 20t76 -18q27 -23 39 -51q17 -27 27 -37 q16 -13 39 -13q26 0 47 21q18 18 18 45q0 22 -14 53q-15 24 -43 49q-30 24 -76 39q-54 15 -105 15q-70 0 -131 -23q-58 -21 -88 -61t-30 -95q0 -53 28 -92q32 -40 78 -57q55 -23 119 -37q80 -19 82 -20q27 -9 47 -29q18 -15 18 -43q0 -36 -32 -58q-38 -24 -93 -24 q-41 0 -65 12q-25 15 -37 29q-3 5 -8.5 14t-10 17t-8.5 16q-8 25 -24 41q-21 14 -41 14q-29 0 -47 -18q-19 -19 -19 -43z" />
<glyph unicode="&#xf33a;" d="M102 512q0 100 39 191.5t105.5 157t157 104.5t190.5 39q134 0 247 -66t178.5 -179t65.5 -247q0 -100 -39 -190.5t-104.5 -157t-156.5 -105.5t-191 -39q-202 0 -347 145t-145 347zM330 639q0 -40 20 -78q-4 -16 -4 -51q0 -107 73.5 -182.5t176.5 -75.5q33 0 47 4 q30 -18 70 -18q60 0 102.5 43.5t42.5 105.5q0 36 -16 68q6 27 6 55q0 107 -74 182.5t-178 75.5q-29 0 -43 -2q-36 22 -76 22q-61 0 -104 -43.5t-43 -105.5zM449 436q0 15 10 25q13 10 26 10q15 0 23 -8q7 -4 14 -23q2 -6 8 -14.5t7 -11.5q7 -11 20 -17q15 -6 37 -6 q33 0 51 12q19 16 19 33t-11 25q-11 11 -26 16q-4 1 -11 2.5t-17.5 4t-16.5 3.5q-15 3 -68 21q-20 10 -43 33q-16 22 -16 53q0 30 18 51q17 24 49 35q30 12 74 12q36 0 57 -8q21 -5 43 -20q19 -19 25 -29q6 -15 6 -31q0 -14 -10 -24q-11 -11 -25 -11q-13 0 -22 6 q-9 9 -15 21q-10 20 -22 29q-10 10 -43 10q-26 0 -43 -10q-17 -14 -17 -25q0 -9 7 -16q9 -10 14 -11q4 -3 20 -8q15 -5 35 -10q40 -8 56 -14q26 -10 43 -21q19 -12 28 -31q10 -20 10 -45q0 -33 -18 -57q-13 -23 -49 -41q-40 -14 -80 -14q-54 0 -90 20q-23 11 -41 37 q-16 26 -16 47z" />
<glyph unicode="&#xf33c;" horiz-adv-x="1146" d="M102 516q0 174 113 305.5t281 159.5v-299q-1 -155 -78.5 -281.5t-202.5 -187.5q-113 132 -113 303zM348 102q85 54 144.5 130.5t80.5 164.5q21 -88 81.5 -164.5t146.5 -130.5q-105 -57 -228 -57t-225 57zM651 684v297q168 -28 280.5 -159.5t112.5 -305.5t-110 -303 q-127 61 -205 188t-78 283z" />
<glyph unicode="&#xf33f;" horiz-adv-x="1224" d="M102 352q0 134 150 287q93 95 190 133t138 -4q36 -36 10 -119q-4 -11 2 -14t14 -1l8 3q76 34 137 34.5t87 -34.5q23 -37 -2 -102q-4 -12 0 -16.5t16 -8.5q50 -16 85.5 -50.5t35.5 -88.5q0 -48 -33 -100.5t-90.5 -96.5t-144 -73t-183.5 -29q-105 0 -200.5 34t-157.5 99.5 t-62 146.5zM205 315q8 -82 100.5 -131t216.5 -37t206.5 79t74.5 149q-9 82 -102.5 131t-217.5 37t-205.5 -79t-72.5 -149zM338 311q-9 41 20 78t80 47q50 9 91.5 -13t48.5 -63q9 -41 -20.5 -78t-80.5 -46q-49 -10 -90 12t-49 63zM778 782q3 15 15.5 23.5t27.5 5.5 q60 -12 103 -56t55 -104q3 -14 -5.5 -27t-21.5 -16q-15 -1 -27.5 7t-15.5 22q-7 38 -35.5 66.5t-68.5 37.5q-14 3 -22 15.5t-5 25.5zM778 918q0 15 11 24.5t26 9.5q127 0 217 -89.5t90 -215.5v-2q0 -14 -11 -24.5t-26 -10.5q-13 0 -23.5 10.5t-10.5 24.5q0 98 -69.5 167 t-166.5 69q-15 0 -26 11t-11 26z" />
<glyph unicode="&#xf342;" horiz-adv-x="1085" d="M104 250l154 661q5 17 19.5 29t33.5 12h230q80 0 129 -8q54 -12 96 -35q37 -24 59 -63q21 -41 21 -98q0 -134 -113 -216q-109 -81 -311 -81h-33q-18 0 -33 -12t-18 -29l-39 -160q-3 -17 -18.5 -30t-32.5 -13h-111q-19 0 -28.5 13t-4.5 30zM240 115l6 24h69q17 0 33 13 t21 30l37 160q5 17 19.5 29t33.5 12h30q201 0 314 82q112 83 112 215q0 56 -22 98l8 -4q40 -24 62 -63q20 -39 20 -99q0 -133 -113 -215q-110 -82 -313 -82h-31q-17 0 -33 -12t-20 -29l-37 -159q-5 -18 -20 -30.5t-33 -12.5h-109q-18 0 -27.5 12.5t-6.5 30.5zM389 633 q-3 -17 6.5 -29t26.5 -12h29q88 0 137 37q49 34 49 100q0 44 -31 66q-33 20 -96 20h-35q-19 0 -33.5 -12t-19.5 -29z" />
<glyph unicode="&#xf345;" horiz-adv-x="1146" d="M102 512q0 133 68.5 245.5t187.5 174.5q12 -12 162 -148l-405 -370q-13 54 -13 98zM137 338q3 3 68 61l104 95v-371q-119 81 -172 215zM381 82v203h604q-57 -103 -154.5 -167.5t-214.5 -76.5h-86q-86 10 -149 41zM432 961q65 22 141 22q102 0 195 -41v-285zM840 356v545 q96 -66 150 -169t54 -220q0 -82 -26 -156h-178z" />
<glyph unicode="&#xf348;" horiz-adv-x="1228" d="M102 408l15 73q4 4 10 4q10 0 10 -4l17 -73l-17 -72q0 -4 -10 -4q-6 0 -10 4zM205 408l12 170q0 8 12 8q13 0 13 -8l14 -170l-14 -111q0 -8 -13 -8q-12 0 -12 8zM307 408l10 227q0 10 15 10q14 0 14 -10l12 -227l-12 -109q0 -10 -14 -10q-15 0 -15 8zM410 408l8 229 q0 10 16 10q17 0 17 -10l10 -229l-10 -109q0 -10 -17 -10q-16 0 -16 10zM512 408l6 262q4 14 19 14q18 0 18 -14l8 -262l-8 -107q0 -12 -18 -12q-16 0 -19 12zM614 303v406q0 9 13 14q38 14 86 14q91 0 157 -59.5t74 -145.5q26 11 51 11q54 0 92.5 -37.5t38.5 -89.5 q0 -54 -38.5 -91.5t-92.5 -37.5l-366 2q-15 0 -15 14z" />
<glyph unicode="&#xf34b;" horiz-adv-x="1228" d="M106 506q-22 173 111.5 315t343.5 168q139 17 263.5 -25t204 -130.5t93.5 -202.5q7 -58 -3 -122.5t-35 -128t-67.5 -123t-96.5 -106.5t-126.5 -79t-152.5 -41v110h-49q-189 0 -327.5 103t-158.5 262zM332 367h94v241q0 5 4 21q4 10 16 26q11 15 27 21q20 10 41 10 q19 0 31 -6q9 -3 16 -10q4 -7 8 -21q4 -16 4 -28v-254h93v241q0 37 22 56q22 22 64 22q20 0 32 -6q11 -3 17 -12q8 -8 8 -19q4 -20 4 -28v-254h92v282q0 35 -10 53q-7 19 -31 39q-17 14 -45 21q-27 6 -57 6q-45 0 -76 -16q-24 -12 -43 -31q-10 18 -37 33q-32 14 -71 14 q-68 0 -113 -39v31h-90v-393z" />
<glyph unicode="&#xf34e;" horiz-adv-x="1228" d="M102 188v662h330q80 0 130 -45t50 -131q0 -33 -10 -58t-24 -37t-28 -19.5t-24 -9.5l-10 -1q36 0 61 -17t36 -41t16.5 -48t5.5 -41v-17q0 -57 -21 -98t-50.5 -59.5t-59.5 -28.5t-51 -11h-21h-330zM248 307h176q76 0 76 86q0 26 -7 44.5t-17 27t-20 13t-17 4.5l-7 1h-184 v-176zM248 586h174q27 0 41 15.5t14 62.5q0 31 -11.5 48.5t-22.5 19.5l-11 1h-184v-147zM658 414l1 14q0 5 0.5 14.5t5.5 35.5t13 50t26.5 53.5t43 50.5t65 35.5t90.5 14.5q53 0 93.5 -16t63.5 -41t38.5 -55.5t20 -61.5t6.5 -56t1 -41l-2 -16h-327q0 -34 11.5 -58.5 t27.5 -35t32 -15.5t28 -5h11q30 0 51.5 7t31 17.5t14.5 20.5t6 17v7h110q0 -53 -22.5 -90t-54 -52.5t-63.5 -24t-54 -7.5h-23q-53 0 -95 14t-67 36t-43 49t-25 54t-11 49t-4 36zM768 731v80h262v-80h-262zM795 483h209q0 4 -0.5 11t-6 25t-14.5 31.5t-29 24.5t-47 11 t-49 -10.5t-33 -26t-18.5 -30.5t-9.5 -25z" />
<glyph unicode="&#xf351;" horiz-adv-x="1146" d="M102 352q0 97 55 177t144 114q12 143 118.5 241.5t252.5 98.5q155 0 263.5 -108.5t108.5 -262.5q0 -146 -98 -252.5t-241 -117.5q-34 -89 -114 -145t-177 -56q-129 0 -220.5 91.5t-91.5 219.5zM102 868q0 44 32 75.5t75 31.5q44 0 75 -31.5t31 -75.5q0 -43 -31 -73.5 t-75 -30.5q-43 0 -75 31t-32 73zM152 868q0 -24 16.5 -40.5t40.5 -16.5q25 0 42 17t17 40q0 25 -17 42.5t-42 17.5q-24 0 -40.5 -17.5t-16.5 -42.5zM207 352q0 -86 60.5 -146.5t146.5 -60.5q56 0 103.5 28t74.5 75q-106 23 -183 99.5t-100 182.5q-46 -27 -74 -74.5 t-28 -103.5zM418 559q15 -77 70.5 -132.5t132.5 -70.5q-1 83 -60.5 142.5t-142.5 60.5zM418 664q126 -1 215.5 -91.5t91.5 -216.5q90 19 148.5 90.5t58.5 165.5q0 107 -76.5 183.5t-183.5 76.5q-93 0 -165 -59t-89 -149z" />
<glyph unicode="&#xf354;" d="M102 195v636q0 72 50.5 122.5t121.5 50.5h639q71 0 121.5 -50.5t50.5 -122.5v-636q0 -72 -50.5 -123.5t-121.5 -51.5h-639q-71 0 -121.5 51.5t-50.5 123.5zM420 262h201q86 0 128 43.5t42 104.5q0 97 -99 118v2q31 9 50.5 37t19.5 68q0 51 -36 80.5t-87 29.5h-219v-483z M532 352v119h60q39 0 55 -8q27 -17 27 -49q0 -36 -25 -52q-13 -10 -63 -10h-54zM532 555v104h27q51 0 62 -6q24 -15 24 -43t-20 -45q-13 -10 -58 -10h-35z" />
<glyph unicode="&#xf357;" horiz-adv-x="1169" d="M104 748q-6 30 9.5 55t44.5 31l190 45q-67 -73 -61 -187q6 -81 73 -144.5t170 -101.5q138 -53 162 -129q16 -54 -28 -88q-31 -24 -78 -24q-57 0 -112 20t-81 40l-26 20l-76 -174q70 -36 139 -58l-82 -20q-28 -6 -53.5 9t-32.5 44zM510 702q-14 47 31 76q33 21 80 19 q59 -3 104.5 -18.5t61.5 -29.5l16 -14l59 164q-85 46 -180 62l137 32q29 6 53.5 -9.5t32.5 -43.5l158 -661q8 -29 -8 -54.5t-45 -31.5l-140 -35q42 59 45 139q3 91 -55 168.5t-190 120.5q-140 47 -160 116z" />
</font>
</defs>
</svg>
